<svg width="19" height="18" viewBox="0 0 19 18" fill="none" xmlns="http://www.w3.org/2000/svg">
<path d="M9.5 0.25C4.42637 0.25 0.3125 4.16797 0.3125 9C0.3125 13.832 4.42637 17.75 9.5 17.75C14.5736 17.75 18.6875 13.832 18.6875 9C18.6875 4.16797 14.5736 0.25 9.5 0.25ZM13.4683 6.14258L9.14932 11.8457C9.08895 11.9259 9.00937 11.9913 8.91718 12.0364C8.82499 12.0815 8.72284 12.1051 8.61919 12.1051C8.51554 12.1051 8.41339 12.0815 8.3212 12.0364C8.229 11.9913 8.14943 11.9259 8.08906 11.8457L5.53174 8.4707C5.45381 8.36719 5.53174 8.22266 5.66504 8.22266H6.62686C6.83604 8.22266 7.03496 8.31836 7.15801 8.48242L8.61816 10.4121L11.842 6.1543C11.965 5.99219 12.1619 5.89453 12.3731 5.89453H13.335C13.4683 5.89453 13.5462 6.03906 13.4683 6.14258Z" fill="#43B998"/>
</svg>
